<svg width="32" height="32" viewBox="0 0 32 32" fill="none" xmlns="http://www.w3.org/2000/svg">
  <path d="M16 2C8.268 2 2 8.268 2 16C2 23.732 8.268 30 16 30C23.732 30 30 23.732 30 16C30 8.268 23.732 2 16 2Z" fill="#0052FF"/>
  <path d="M16 22.9375C12.1719 22.9375 9.0625 19.8281 9.0625 16C9.0625 12.1719 12.1719 9.0625 16 9.0625C19.3438 9.0625 22.1562 11.4844 22.8125 14.625H22.9375V17.375H22.8125C22.1562 20.5156 19.3438 22.9375 16 22.9375ZM16 11.75C13.6562 11.75 11.75 13.6562 11.75 16C11.75 18.3438 13.6562 20.25 16 20.25C18.3438 20.25 20.25 18.3438 20.25 16C20.25 13.6562 18.3438 11.75 16 11.75Z" fill="white"/>
</svg>
