<?xml version="1.0" encoding="UTF-8"?>
<svg width="32px" height="32px" viewBox="0 0 32 32" version="1.1" xmlns="http://www.w3.org/2000/svg">
    <g fill="none" fill-rule="evenodd">
        <circle fill="#66F9A1" cx="16" cy="16" r="16"/>
        <path d="M10.5 9.004c.167-.168.37-.294.592-.367l10.12-3.4a.901.901 0 0 1 .818.104.878.878 0 0 1 .329.378.868.868 0 0 1 .063.49.878.878 0 0 1-.259.426L20.25 8.582l5.028 5.028c.141.141.234.32.267.514a.877.877 0 0 1-.267.815l-1.931 1.931a.876.876 0 0 1-1.236 0L17.083 11.8l-6.241 6.242a.878.878 0 0 1-1.236 0l-1.932-1.932a.878.878 0 0 1 0-1.236L12.917 9.63l-2.417-2.417a.878.878 0 0 1 0-1.236l1.932-1.932a.878.878 0 0 1 1.236 0l2.417 2.417 1.931-1.931a.878.878 0 0 1 1.236 0l1.932 1.932a.878.878 0 0 1 0 1.236l-5.028 5.028 5.028 5.028a.878.878 0 0 1 0 1.236l-1.932 1.932a.878.878 0 0 1-1.236 0l-5.028-5.028-1.931 1.931a.878.878 0 0 1-1.236 0l-1.932-1.932a.878.878 0 0 1 0-1.236l1.931-1.931-2.417-2.417a.878.878 0 0 1 0-1.236l1.932-1.932a.878.878 0 0 1 1.236 0l2.417 2.417z" fill="#FFFFFF"/>
    </g>
</svg>
