<?xml version="1.0" encoding="UTF-8"?>
<svg width="32px" height="32px" viewBox="0 0 32 32" version="1.1" xmlns="http://www.w3.org/2000/svg">
    <g fill="none" fill-rule="evenodd">
        <circle fill="#0033AD" cx="16" cy="16" r="16"/>
        <path d="M16.634 15.536c.561 0 1.01.45 1.01 1.01a1.01 1.01 0 0 1-1.01 1.01 1.01 1.01 0 0 1-1.01-1.01c0-.56.45-1.01 1.01-1.01zm-3.13-1.01a.674.674 0 1 1 0 1.347.674.674 0 0 1 0-1.347zm6.26 0a.674.674 0 1 1 0 1.347.674.674 0 0 1 0-1.347zm-7.27-2.525a.674.674 0 1 1 0 1.347.674.674 0 0 1 0-1.347zm8.28 0a.674.674 0 1 1 0 1.347.674.674 0 0 1 0-1.347zm-9.123-1.515a.505.505 0 1 1 0 1.01.505.505 0 0 1 0-1.01zm9.965 0a.505.505 0 1 1 0 1.01.505.505 0 0 1 0-1.01zm-8.111-1.01a.505.505 0 1 1 0 1.01.505.505 0 0 1 0-1.01zm6.26 0a.505.505 0 1 1 0 1.01.505.505 0 0 1 0-1.01zm-7.27-1.01a.337.337 0 1 1 0 .673.337.337 0 0 1 0-.673zm8.28 0a.337.337 0 1 1 0 .673.337.337 0 0 1 0-.673zm-6.26-1.01a.337.337 0 1 1 0 .673.337.337 0 0 1 0-.673zm4.24 0a.337.337 0 1 1 0 .673.337.337 0 0 1 0-.673zm-2.02-.842a.337.337 0 1 1 0 .673.337.337 0 0 1 0-.673zm-3.13 9.628a.674.674 0 1 1 0 1.347.674.674 0 0 1 0-1.347zm6.26 0a.674.674 0 1 1 0 1.347.674.674 0 0 1 0-1.347zm-7.27 1.01a.674.674 0 1 1 0 1.347.674.674 0 0 1 0-1.347zm8.28 0a.674.674 0 1 1 0 1.347.674.674 0 0 1 0-1.347zm-9.123 1.515a.505.505 0 1 1 0 1.01.505.505 0 0 1 0-1.01zm9.965 0a.505.505 0 1 1 0 1.01.505.505 0 0 1 0-1.01zm-8.111 1.01a.505.505 0 1 1 0 1.01.505.505 0 0 1 0-1.01zm6.26 0a.505.505 0 1 1 0 1.01.505.505 0 0 1 0-1.01zm-7.27 1.01a.337.337 0 1 1 0 .673.337.337 0 0 1 0-.673zm8.28 0a.337.337 0 1 1 0 .673.337.337 0 0 1 0-.673zm-6.26 1.01a.337.337 0 1 1 0 .673.337.337 0 0 1 0-.673zm4.24 0a.337.337 0 1 1 0 .673.337.337 0 0 1 0-.673zm-2.02.842a.337.337 0 1 1 0 .673.337.337 0 0 1 0-.673z" fill="#FFFFFF" fill-rule="nonzero"/>
    </g>
</svg>
