<?xml version="1.0" encoding="UTF-8"?>
<svg width="256px" height="256px" viewBox="0 0 256 256" version="1.1" xmlns="http://www.w3.org/2000/svg" preserveAspectRatio="xMidYMid">
    <title>Phantom</title>
    <defs>
        <linearGradient x1="0%" y1="0%" x2="100%" y2="100%" id="phantomLinearGradient-1">
            <stop stop-color="#534BB1" offset="0%"></stop>
            <stop stop-color="#551BF9" offset="100%"></stop>
        </linearGradient>
    </defs>
    <g>
        <path d="M128,0 C198.692,0 256,57.308 256,128 C256,198.692 198.692,256 128,256 C57.308,256 0,198.692 0,128 C0,57.308 57.308,0 128,0 Z M99.35,77.5 C97.7,77.5 96.2,78.2 95.2,79.4 L75.55,103.9 C74.55,105.1 74.05,106.6 74.05,108.2 L74.05,178.2 C74.05,181.4 76.65,184 79.85,184 L176.15,184 C179.35,184 181.95,181.4 181.95,178.2 L181.95,108.2 C181.95,106.6 181.45,105.1 180.45,103.9 L160.8,79.4 C159.8,78.2 158.3,77.5 156.65,77.5 L99.35,77.5 Z M128,124.5 C118.9,124.5 111.5,131.9 111.5,141 C111.5,150.1 118.9,157.5 128,157.5 C137.1,157.5 144.5,150.1 144.5,141 C144.5,131.9 137.1,124.5 128,124.5 Z M128,134.5 C131.6,134.5 134.5,137.4 134.5,141 C134.5,144.6 131.6,147.5 128,147.5 C124.4,147.5 121.5,144.6 121.5,141 C121.5,137.4 124.4,134.5 128,134.5 Z M128,104.5 C121.1,104.5 115.5,110.1 115.5,117 C115.5,123.9 121.1,129.5 128,129.5 C134.9,129.5 140.5,123.9 140.5,117 C140.5,110.1 134.9,104.5 128,104.5 Z M128,114.5 C129.4,114.5 130.5,115.6 130.5,117 C130.5,118.4 129.4,119.5 128,119.5 C126.6,119.5 125.5,118.4 125.5,117 C125.5,115.6 126.6,114.5 128,114.5 Z" fill="url(#phantomLinearGradient-1)"></path>
    </g>
</svg>
