<?xml version="1.0" encoding="UTF-8"?>
<svg width="32px" height="32px" viewBox="0 0 32 32" version="1.1" xmlns="http://www.w3.org/2000/svg">
    <g fill="none" fill-rule="evenodd">
        <circle fill="#2775CA" cx="16" cy="16" r="16"/>
        <path d="M16 6C10.48 6 6 10.48 6 16s4.48 10 10 10 10-4.48 10-10-4.48-10-10-10zm0 18.25c-4.56 0-8.25-3.69-8.25-8.25S11.44 7.75 16 7.75s8.25 3.69 8.25 8.25-3.69 8.25-8.25 8.25z" fill="#FFF"/>
        <path d="M16.75 14.353V11.04c1.552.18 2.75 1.462 2.75 3.042a.5.5 0 0 0 1 0c0-2.125-1.636-3.874-3.75-4.04V9.5a.5.5 0 0 0-1 0v.542c-2.114.166-3.75 1.915-3.75 4.04s1.636 3.874 3.75 4.04v3.335c-1.552-.18-2.75-1.462-2.75-3.042a.5.5 0 0 0-1 0c0 2.125 1.636 3.874 3.75 4.04v.545a.5.5 0 0 0 1 0v-.545c2.114-.166 3.75-1.915 3.75-4.04s-1.636-3.874-3.75-4.04v.021zm-1 3.269c-1.552-.18-2.75-1.462-2.75-3.042s1.198-2.861 2.75-3.042v6.084zm1 .979v6.084c1.552-.18 2.75-1.462 2.75-3.042s-1.198-2.861-2.75-3.042z" fill="#FFF"/>
    </g>
</svg>
